<svg xmlns="http://www.w3.org/2000/svg" xml:space="preserve" x="0px" y="0px" viewBox="0 0 290 339.279"><path fill="#5F0041" d="M.002 0v173.807c0 37.517 15.19 73.681 43.939 104.581 26.479 28.492 62.51 50.026 101.451 60.655l.889.235.92-.121c10.62-1.517 42.623-12.391 73.65-36.247 27.73-21.327 62.225-59.277 69.12-118.957l.012-46.623L290.001 0H.002z"/><path fill="#FFF" d="M8.222 8.901v164.348c0 35.994 14.376 70.536 41.556 99.842 24.61 26.55 57.841 46.614 93.589 56.506l2.684.623 2.997-.298.138-.023c10.531-1.521 24.182-7.493 28.111-9.293a198.251 198.251 0 0 0 40.838-25.002c36.347-28.841 58.246-67.699 63.336-112.343l.084-174.36"/><path fill="#5F0041" fill-rule="evenodd" d="M18.173 20.438h253.644v161.511c-11.467 99.274-108.93 134.167-125.419 136.523-68.117-18.598-128.225-75.879-128.225-145.227" clip-rule="evenodd"/><path fill="#FFF" fill-rule="evenodd" d="M142.98 24.273s.28 1.863 0 3.266c-.277 1.412-.556 1.873-.556 1.873s2.045-1.028 3.073-1.306 2.612-.567 3.17-.75c.556-.181-3.256 1.595-4.562 2.335-1.306.75-2.709 1.595-3.266 2.43-.556.845-2.612 3.554-2.612 4.486 0 .942 1.124 1.97.932 3.362-.182 1.403-.653 2.163-.932 2.441-.278.279-.375-.193-.46-1.402-.097-1.22-.278-1.682-.278-1.682s-.568.461-.846 1.114c-.279.653-.375 1.306-1.21 2.345-.846 1.028-1.585 1.584-1.585 1.584s.278-4.4 1.21-5.513c.932-1.125 1.488-2.056 1.488-2.056s1.028-2.527.943-3.93c-.097-1.402.46-4.207 1.488-5.513 1.027-1.307 3.169-2.71 4.003-3.084" clip-rule="evenodd"/><path fill="#FFF" d="m142.98 24.273-.213.03s.118.814.118 1.767c0 .471-.02.985-.118 1.424-.14.696-.268 1.157-.375 1.435l-.118.3-.03.075-.386.631.664-.331s2.055-1.028 3.03-1.297c1.017-.278 2.591-.556 3.18-.749l.02-.011-.031-.14v.15l.03-.012-.03-.139v.15-.214l-.086.193.086.02v-.214l-.086.192.086-.192h-.214l.128.192.086-.192h-.214.203l-.15-.15-.053.15h.203l-.15-.15.086.074-.064-.085-.02.011.086.075-.065-.085c-.246.16-3.415 1.649-4.583 2.323-1.316.75-2.719 1.585-3.34 2.495-.278.407-.932 1.307-1.52 2.216-.579.91-1.103 1.799-1.125 2.388.031 1.017.975 1.917.953 3.04l-.02.3c-.17 1.36-.63 2.077-.866 2.302l-.031.031.043.065v-.075l-.043.011.043.065v-.075.117l.074-.096-.074-.02v.118l.074-.096v.012-.012.012-.012c-.053-.075-.128-.557-.182-1.306-.096-1.231-.289-1.724-.3-1.746l-.106-.278-.225.193c-.012.011-.6.492-.91 1.199-.29.696-.364 1.285-1.178 2.291h.011-.011c-.407.503-.803.889-1.082 1.157-.147.139-.3.271-.46.396l.129.17.214.012s.075-1.092.257-2.312c.171-1.232.503-2.613.91-3.073a17.417 17.417 0 0 0 1.499-2.088l.011-.011.012-.024c0-.011.953-2.311.953-3.81v-.205l-.012-.31c-.012-1.424.546-3.93 1.456-5.064v.012-.012c.975-1.253 3.126-2.666 3.919-3.02l-.086-.192-.214.03.214-.03-.085-.193c-.878.397-3.02 1.789-4.09 3.148v-.012c-1.007 1.296-1.542 3.8-1.553 5.332l.012.332.011.182c0 .664-.225 1.596-.46 2.334-.236.75-.471 1.317-.471 1.317l.203.086-.182-.118c0 .012-.546.921-1.466 2.035-.536.652-.814 2.023-1.007 3.286-.12.781-.206 1.567-.257 2.356l-.031.46.375-.278c.012-.012.77-.578 1.627-1.628s.975-1.766 1.232-2.387c.128-.3.332-.557.492-.75l.29-.289-.13-.16-.203.075s.031.096.097.353c.053.257.117.664.171 1.263.031.493.075.868.129 1.135l.106.343.3.203.29-.14c.331-.331.802-1.113.995-2.558l.023-.353c-.011-1.339-.985-2.323-.953-3.04-.011-.343.482-1.275 1.06-2.164.578-.888 1.232-1.777 1.51-2.206.514-.77 1.895-1.616 3.201-2.355.589-.343 1.745-.92 2.752-1.413.503-.247.963-.471 1.306-.643l.407-.203.118-.064.042-.031.031-.031.064-.15-.129-.204-.085-.019-.118.031c-.525.171-2.12.46-3.159.738-1.07.3-3.115 1.328-3.115 1.328l.096.193.182.117c.02-.03.3-.524.589-1.948a7.883 7.883 0 0 0 .128-1.51c0-.984-.128-1.82-.128-1.83l-.043-.28-.257.119"/><path fill="#FFF" fill-rule="evenodd" d="M161.443 63.094c.557-.096 1.21-.182 1.21-.182L162 61.97s2.14 1.124 2.43 1.22c.278.097.556-.278.556-.278s.376.278.836.375c.47.085.942-.568 1.402-1.125.461-.567 1.028-1.124.097-1.306-.942-.193-1.403-.47-2.152-.75-.739-.278-.932-.663-.932-.663l1.125-.182s-2.891-2.056-3.64-3.266c-.74-1.22-2.517-3.276-4.476-4.764-1.95-1.5-3.908-3.094-5.59-3.469-1.68-.364-2.697-.653-2.697-.653s.085-3.64.46-5.043 1.777-4.765 1.777-5.706c0-.932.182-2.335-1.124-3.641s-2.43-1.777-3.822-1.777-3.03.963-4.047 1.435c-1.028.46-1.638 1.081-2.763 1.638-1.113.567-1.574.728-1.863 1.006-.278.278-.139.385-.139.385l.407.118s1.178-.375 2.206-.557c1.028-.192 1.905.504 3.115 1.253 1.21.75 1.692 1.36 1.692 2.762 0 1.403-1.306 4.112-2.152 5.514-.835 1.403-2.238 2.806-2.516 4.293-.279 1.5-.75 2.999-.557 4.584.182 1.595 1.21 3.929 2.42 5.331 0 0 1.274 2.11 2.227 2.634.963.524 3.233.353 3.844.353.61 0 .953.696 2.612 1.564 1.916 1.295 5.61 2.344 6.114 1.756.696-.268 1.038-.793 2.173-1.135 1.135-.354 2.42-.782 2.42-.782" clip-rule="evenodd"/><path fill="#FFF" d="m161.443 63.094.03.214c.557-.096 1.21-.182 1.21-.182l.343-.053-.846-1.221-.182.118-.096.192c.012.012 2.12 1.114 2.452 1.232l.16.03c.418-.03.622-.374.643-.384l-.172-.13-.128.172c.012.012.396.3.921.407l.139.02c.632-.043 1.028-.707 1.478-1.21.266-.353.61-.653.642-1.07 0-.322-.289-.525-.674-.59-.91-.181-1.35-.45-2.12-.738a2.101 2.101 0 0 1-.675-.386l-.118-.14-.02-.019-.192.087.043.213 1.114-.182.513-.085-.428-.3s-.707-.514-1.52-1.178c-.803-.653-1.714-1.477-2.056-2.034-.76-1.242-2.537-3.309-4.53-4.818v-.012l.013.012c-1.96-1.499-3.92-3.105-5.675-3.502a64.237 64.237 0 0 1-2.698-.652l-.054.203.215.012c-.012 0 .096-3.651.46-5 .171-.685.62-1.874 1.017-3.01.396-1.145.75-2.194.76-2.75v-.675c.012-.889-.118-2.045-1.188-3.116-1.317-1.338-2.527-1.852-3.972-1.841-1.489 0-3.127.995-4.133 1.456h-.012.012c-1.07.481-1.681 1.102-2.773 1.638-1.103.567-1.564.707-1.917 1.049l-.235.45.117.257.031.02.45.128.064.023.054-.023c.011 0 1.177-.374 2.184-.546l.3-.031c.77-.012 1.574.578 2.655 1.253 1.188.76 1.574 1.23 1.585 2.58.011 1.295-1.275 4.026-2.11 5.407-.813 1.37-2.237 2.773-2.548 4.368-.225 1.242-.6 2.517-.6 3.866 0 .256.012.513.043.78v-.01.01c.193 1.65 1.232 3.995 2.474 5.44l.16-.14-.182.108c.02.012 1.253 2.11 2.313 2.709.653.354 1.713.407 2.602.407.588 0 1.102-.02 1.338-.02.417-.053.835.643 2.516 1.542l.097-.193-.118.182c1.584 1.07 4.261 1.95 5.6 1.96.331-.012.598-.043.792-.247l-.16-.139.074.204c.77-.311 1.081-.803 2.162-1.135 1.136-.354 2.42-.782 2.42-.782l-.064-.204.031.215-.03-.215-.065-.203c-.012 0-1.285.429-2.42.782v-.012c-1.188.374-1.563.92-2.184 1.146l-.053.02-.044.042c0 .023-.17.096-.46.096-1.177 0-3.876-.878-5.364-1.884l-.011-.012-.012-.012c-1.627-.835-1.906-1.541-2.708-1.595-.257 0-.76.031-1.339.031-.857 0-1.906-.075-2.398-.353-.418-.225-.975-.867-1.403-1.457a12.311 12.311 0 0 1-.739-1.102l-.011-.012-.012-.011c-1.188-1.36-2.205-3.694-2.377-5.214l-.043-.728c0-1.275.364-2.516.6-3.79.246-1.393 1.627-2.795 2.494-4.23.846-1.434 2.163-4.11 2.174-5.62.012-1.457-.557-2.206-1.799-2.945-1.06-.653-1.884-1.306-2.88-1.317l-.374.031c-1.05.193-2.227.567-2.238.567l.064.204.064-.204-.407-.118-.064.204.14-.171-.065.085h.107l-.043-.085-.064.085h.107l.012-.02.107-.128c.203-.225.674-.396 1.81-.964h-.012c1.156-.567 1.766-1.188 2.751-1.637 1.039-.483 2.655-1.414 3.962-1.414 1.349.011 2.387.428 3.672 1.713.964.974 1.06 1.96 1.06 2.816l-.011.675c.011.384-.332 1.488-.728 2.612-.396 1.125-.836 2.312-1.028 3.04-.386 1.457-.471 5.087-.482 5.097v.171l.16.043s1.028.279 2.72.653c1.595.354 3.555 1.917 5.503 3.426 1.938 1.468 3.694 3.523 4.422 4.7v.012-.011c.814 1.295 3.683 3.319 3.694 3.34l.129-.182-.043-.214-1.114.193-.289.043.129.257c.019.043.257.47 1.049.77.728.268 1.22.558 2.184.75.343.086.332.15.332.171.02.086-.257.46-.546.793-.428.546-.91 1.091-1.146 1.049h-.053l-.525-.204-.214-.128-.182-.129-.128.171-.108.108-.192.096h-.02l-.064.204.064-.204c-.096-.03-.728-.343-1.285-.632-.567-.288-1.102-.567-1.102-.578l-.279.322.653.93.172-.117-.031-.214s-.653.085-1.21.182h-.023l-.012.012"/><path fill="#FFF" fill-rule="evenodd" d="M141.605 32.425c-1.135.536-1.445.814-2.677 1.456-1.23.643-2.002 1.478-2.344 1.767-.407.342-.429.654-.429.654l.397-.183s1.959-.45 3.083-.664 2.045.064 3.383.91c0 0-1.06-1.841-1.242-2.794-.181-.964-.171-1.146-.171-1.146" clip-rule="evenodd"/><path fill="#630530" d="M146.202 49.606c0 .012.085 3.33 1.092 5.183.139.257.31.514.503.781.193.268.418.525.643.782 1.188 1.338 2.762 2.516 3.715 2.816.289.085.524.16.728.214l-.225-.278.503-.472s.878.803 1.745.953l.15.031-.417-.632-.012-.011.589-.375.011.012.012.03.075.107c.225.332.846 1.178 1.178.975.62-.385.749-.664.749-.664l.6.353s-.204.418-.985.9l-.418.128.107.16-.803-.15-.963-.17-.31-.086.074.085h-.75s-.396 0-1.852-.449c-1.049-.332-2.751-1.595-4.015-3.009-.241-.271-.47-.553-.685-.845a7.664 7.664 0 0 1-.557-.857v-.012c-1.081-1.992-1.177-5.482-1.177-5.492"/><path fill="#5F0041" fill-rule="evenodd" d="M144.634 32.555s.44-.353.964-.353c.514 0 1.306.353 1.306.353s-.439.44-.963.525c-.526.086-1.307-.525-1.307-.525" clip-rule="evenodd"/><path fill="#FFF" fill-rule="evenodd" d="M144.426 61.199s1.157.995 1.585 1.788c.418.803 1.22 2.077 1.306 2.399.097.332.14.481-.139.481-.278-.012-1.263-.097-2.58-.289s-3.234-1.413-3.608-1.735c-.375-.332-1.607-1.038-2.592-1.134-.984-.097-1.638-.097-1.638-.097s2.442 2.634 3.052 3.158c.61.515 2.163 1.885 3.522 2.495 1.36.61 2.762 1.928 4.497 2.164 1.745.235 1.928.374 2.591-.333.653-.707 1.307-1.788 1.307-1.788s.246.236.192 1.414c-.042 1.177-.846 3.105-1.039 3.629-.181.514-1.401 3.244-1.637 3.812-.235.557-.61.942-.61.942s.192.32.888.32h1.692c1.038 0 1.413-.234 1.413-.234s-.192-.846.278-2.217c.471-1.36 2.955-4.507 3.48-4.84.503-.33 1.916-1.455 1.916-1.648 0-.182-.278-.942-.417-1.692-.15-.76-.525-2.59-.525-2.59s.268-.226-1.285-.311c-1.552-.096-1.948-.343-3.95-1.19-3.245-2.226-3.855-2.247-3.855-2.247s-1.284.074-1.798.031c-.525-.043-2.046-.29-2.046-.29" clip-rule="evenodd"/><path fill="#FFF" fill-rule="evenodd" d="M140.391 65.235c.718 2.26-1.424 4.968-4.807 6.038-3.373 1.082-6.681.118-7.398-2.151-.718-2.27 1.434-4.968 4.807-6.04 3.372-1.08 6.681-.117 7.398 2.153" clip-rule="evenodd"/><path fill="#FFF" d="m140.391 65.235-.203.064c.086.279.128.557.128.835.012 1.895-1.916 4.026-4.796 4.936-.91.29-1.82.428-2.666.428-2.227 0-3.994-.931-4.465-2.44a2.722 2.722 0 0 1-.128-.836c-.012-1.895 1.916-4.026 4.796-4.935a8.843 8.843 0 0 1 2.666-.43c2.227 0 3.994.933 4.465 2.442l.203-.064.204-.065c-.568-1.766-2.548-2.75-4.872-2.75a9.53 9.53 0 0 0-2.805.449c-2.987.963-5.075 3.169-5.086 5.353 0 .332.043.653.15.964.568 1.766 2.538 2.751 4.872 2.751a9.38 9.38 0 0 0 2.794-.45c2.998-.963 5.086-3.169 5.097-5.353 0-.321-.043-.653-.15-.964M140.588 74.612s-.492 4.06-.834 4.402c-.332.343-1.458.726-1.458.726l-6.071-3.223-4.506 4.197s-4.892-2.878-4.892-3.2c0-.31-.537 3.182-.998 3.653-.057.058-.184.097-.278.145h-9.585c-3.115 0-5.642 2.534-5.642 5.66 0 3.116 2.527 5.655 5.642 5.655v.042h49.727c-2.729.05-3.383-2.315-5.78-3-.686-2.354-4.126-3.125-5.722-5.17-.695-2.034 2.517-1.403 4.113-1.874.53-.056 1.063-.087 1.596-.091 7.581-.062 9.55 5.732 15.342 8.23v1.724c-5.032-1.092-6.636-3.597-10.758-5.17-3.426 2.505 2.516 2.975 2.516 5.17a6.009 6.009 0 0 1-1.307.181h18.904c3.116 0 5.642-2.534 5.642-5.66 0-3.116-2.526-5.654-5.642-5.654v-.043h-8.938c-1.186-1.075-2.673-3.52-2.673-3.52l-1.064.974s-1.902.826-3.465.248c-1.553-.59-3.163-3.223-3.163-3.223l-6.73 2.153-1.458-2.697-2.782 2.45-.828-1.325-1.603 1.324-.502-2.86s-2.307 3.173-2.757 3.634c-.471.471-4.046-3.858-4.046-3.858zm-8.877 7.112c1.377-.078 2.83.117 3.997.272 4.625 2.195 7.914 5.485 10.42 9.083v1.403c-2.89.161-4.433-3.276-6.949-1.252l.768.937c-3.662.782-5.212-2.812-7.728-4.215-.579-1.884-4.058-2.506-4.058-4.862.872-.937 2.172-1.289 3.55-1.366zM115.51 83.24c3.666.15 3.85 3.74 6.773 4.705.47 1.564 4.765 2.654 2.612 4.227-5.47.471-4.518-5.633-9.518-3.138-.717 1.412 1.188 1.416 2.14 2.038v.78c-2.858 1.263-3.573-1.401-5.478-2.032-.707-2.506-.708-4.382 1.669-6.416a7.68 7.68 0 0 1 1.802-.164zm62.717.164a.798.798 0 0 1 .344.006c.805.174 1.835 1.35 2.129 2.032v1.403c-1.574.781-2.505-1.094-3.126-2.347.087-.705.331-1.023.653-1.094z"/><path fill="#5F0041" fill-rule="evenodd" d="M40.025 193.638s-1.21-7.494 0-10.749c1.22-3.233 5.46-7.901 9.304-7.901 3.833 0 8.683 5.075 9.497 8.105.803 3.051-.61 7.302-.814 10.75-.192 3.436.204 9.122.204 9.122l-16.97-4.262" clip-rule="evenodd"/><path fill="#FFF" d="M41.004 183.257c-1.07 2.87-.03 9.647.054 10.183l1.05 4.4 14.979 3.758c-.108-1.927-.258-5.396-.119-7.816.076-1.263.3-2.58.525-3.918.385-2.345.793-4.722.321-6.478v-.021c-.525-1.97-2.987-4.904-5.642-6.425a8.73 8.73 0 0 0-1.499-.674 4.443 4.443 0 0 0-1.338-.225h-.012c-2.398 0-5.064 2.206-6.799 4.55-.342.46-.653.932-.91 1.382-.246.45-.46.878-.61 1.284m-2.013 10.536c0-.022-1.253-7.763.054-11.264v-.01c.192-.504.45-1.028.749-1.574.3-.525.653-1.071 1.05-1.595 2.066-2.784 5.353-5.407 8.48-5.407h.01c.643 0 1.307.128 1.97.331.632.204 1.274.493 1.896.847 3.094 1.766 5.995 5.3 6.638 7.708v.022c.578 2.194.139 4.796-.29 7.355-.213 1.285-.427 2.56-.492 3.694-.193 3.372.204 8.972.204 8.994l.106 1.434-1.402-.352-16.98-4.252-.61-.16-.151-.621-1.21-5.064"/><path fill="#5F0041" fill-rule="evenodd" d="M58.419 189.586s-6.874-.203-9.293 2.227c-2.43 2.432-3.844 3.855-3.437 5.471.407 1.628 4.647 2.035 6.467 2.431 1.82.407 6.06.61 6.06.61s-.204-5.064-.204-7.29c0-2.239.407-3.449.407-3.449" clip-rule="evenodd"/><path fill="#FFF" d="M48.387 191.07c2.74-2.751 10.043-2.526 10.065-2.526l1.402.042-.44 1.328s-.352 1.04-.352 3.116c0 2.291.192 7.238.203 7.26l.043 1.134-1.135-.053c-.012 0-4.336-.204-6.242-.632-.247-.054-.685-.128-1.178-.225-2.313-.407-5.578-.996-6.081-2.966v-.011c-.29-1.145.03-2.173.813-3.286.675-.942 1.65-1.938 2.902-3.181zm8.747-.428c-1.98.054-5.75.386-7.27 1.917-1.188 1.178-2.12 2.12-2.666 2.901-.428.6-.61 1.103-.503 1.574.172.653 2.656 1.103 4.422 1.424.428.075.825.139 1.263.236 1.157.257 3.395.428 4.754.524-.064-1.648-.171-4.657-.171-6.188 0-.974.086-1.777.171-2.388"/><path fill="#5F0041" fill-rule="evenodd" d="M43.059 217.148s-4.036-7.902-4.443-13.78 1.007-11.349 1.007-11.349 4.85 4.657 8.083 6.071c3.233 1.425 16.574 3.244 18.8 4.058 2.228.814 7.474 3.855 7.88 6.896.408 3.04-.599 12.162-1.616 13.779-1.006 1.627-2.623 2.633-2.623 2.633l-26.681-5.267" clip-rule="evenodd"/><path fill="#FFF" d="M39.656 203.297c.385 5.664 4.314 13.35 4.325 13.372l.118.343.3 2.292 25.514 5.042c.47-.353 1.349-1.08 1.97-2.077.642-1.028 1.306-5.835 1.499-9.583a27.47 27.47 0 0 0 .053-2.034c0-.577-.03-1.08-.075-1.466v-.012c-.246-1.776-2.794-3.715-4.957-4.956-.417-.236-.846-.45-1.253-.654-.325-.157-.657-.3-.995-.427-.846-.311-3.608-.814-6.767-1.382-4.614-.824-10.053-1.81-12.077-2.687l-.02-.011c-2.29-1.007-5.3-3.512-7.023-5.032-.375 2.024-.868 5.568-.61 9.272m2.397 14.165c-.588-1.189-4.1-8.437-4.485-14.026-.418-6.049 1.038-11.66 1.038-11.67l.44-1.756 1.305 1.252c.012.01 4.69 4.519 7.752 5.867h.012l.011.012c1.8.781 7.12 1.744 11.639 2.558 3.255.59 6.102 1.103 7.099 1.467h.011c.353.139.76.3 1.178.503.418.204.878.45 1.38.74 2.592 1.466 5.643 3.908 5.997 6.498v.01c.053.462.086 1.05.096 1.724 0 .665-.012 1.393-.053 2.153-.204 4.004-1.007 9.282-1.81 10.588-1.145 1.82-2.955 2.966-2.966 2.966l-.353.214-.396-.075-26.681-5.268-.739-.15-.096-.749"/><path fill="#5F0041" fill-rule="evenodd" d="M251.732 194.169s1.22-7.506 0-10.75c-1.21-3.244-5.45-7.901-9.293-7.901-3.834 0-8.695 5.075-9.498 8.104-.813 3.04.6 7.303.803 10.75.204 3.437-.203 9.112-.203 9.112l16.981-4.25" clip-rule="evenodd"/><path fill="#FFF" d="M252.713 183.056c1.306 3.501.054 11.253.054 11.274l-.012.076-1.199 4.989c-.064.396-.354.75-.781.856l-16.981 4.251-.322.032a1.051 1.051 0 0 1-.975-1.114c0-.021.408-5.62.204-8.993-.065-1.135-.278-2.41-.493-3.694-.427-2.548-.856-5.139-.288-7.334l.011-.043c.643-2.41 3.534-5.942 6.639-7.708a9.605 9.605 0 0 1 1.895-.847 6.375 6.375 0 0 1 1.97-.331c3.137 0 6.414 2.623 8.48 5.406.396.525.75 1.07 1.049 1.596.3.545.556 1.08.75 1.573l-.001.011zm-2.001 10.91c.095-.6 1.113-7.323.052-10.181h-.011a8.378 8.378 0 0 0-.61-1.275 11.398 11.398 0 0 0-.91-1.392c-1.735-2.345-4.39-4.55-6.799-4.55v-.01c-.428 0-.878.096-1.35.234a8.356 8.356 0 0 0-1.486.675c-2.667 1.521-5.13 4.465-5.655 6.424l-.011.043c-.45 1.756-.054 4.133.342 6.457.215 1.338.44 2.655.514 3.918.14 2.42-.011 5.889-.118 7.816l14.99-3.758"/><path fill="#5F0041" fill-rule="evenodd" d="M233.346 190.109s6.872-.203 9.292 2.227c2.43 2.431 3.844 3.855 3.437 5.482-.396 1.617-4.646 2.024-6.467 2.43-1.82.408-6.06.6-6.06.6s.203-5.064.203-7.291-.405-3.448-.405-3.448" clip-rule="evenodd"/><path fill="#FFF" d="M241.9 193.078c-1.531-1.53-5.29-1.851-7.27-1.916.086.621.16 1.424.16 2.387 0 1.532-.096 4.54-.16 6.19 1.36-.086 3.608-.257 4.753-.514.44-.097.835-.172 1.264-.246 1.767-.311 4.25-.761 4.422-1.415v-.01c.107-.46-.075-.964-.504-1.573-.556-.793-1.487-1.724-2.654-2.903h-.011zm-8.587-4.015c.02 0 7.313-.213 10.065 2.528 1.252 1.262 2.237 2.259 2.901 3.19.782 1.113 1.102 2.14.814 3.286v.012c-.503 1.97-3.769 2.56-6.082 2.966-.492.085-.932.17-1.177.225-1.917.417-6.221.631-6.242.631a1.056 1.056 0 0 1-1.093-.995v-.129c.023-.407.204-5.032.204-7.228 0-2.065-.343-3.104-.354-3.115a1.045 1.045 0 0 1 .664-1.317"/><path fill="#5F0041" fill-rule="evenodd" d="M248.702 217.675s4.048-7.9 4.454-13.78c.395-5.877-1.017-11.349-1.017-11.349s-4.85 4.658-8.084 6.082c-3.233 1.414-16.574 3.233-18.801 4.047-2.217.814-7.474 3.855-7.88 6.896-.396 3.04.61 12.162 1.617 13.78 1.016 1.626 2.633 2.632 2.633 2.632l26.671-5.267" clip-rule="evenodd"/><path fill="#FFF" d="M254.197 203.963c-.386 5.59-3.897 12.848-4.476 14.026l-.374 2.783a1.048 1.048 0 0 1-.847.975l-26.681 5.268c-.246.043-.514 0-.749-.14-.011-.01-1.83-1.145-2.966-2.964-.813-1.307-1.595-6.585-1.81-10.59a53.235 53.235 0 0 1-.053-2.151c.011-.665.043-1.264.097-1.725v-.01c.352-2.591 3.404-5.033 5.984-6.51.504-.29.974-.525 1.392-.729.418-.203.825-.374 1.178-.503h.012c.996-.364 3.833-.877 7.099-1.467 4.475-.802 9.764-1.755 11.595-2.537l.053-.032h.012c2.901-1.285 7.28-5.407 7.72-5.835l.503-.3a1.054 1.054 0 0 1 1.273.771c.012.01 1.446 5.621 1.04 11.67m-6.403 13.192c.31-.6 3.94-7.892 4.315-13.33.257-3.705-.237-7.249-.61-9.273-1.725 1.52-4.734 4.026-7.025 5.032h-.011l-.012.011-.03.01c-2.057.88-7.464 1.853-12.057 2.688-3.147.568-5.91 1.06-6.756 1.37-.267.096-.61.247-.995.429-.407.192-.835.417-1.264.664-2.162 1.23-4.7 3.158-4.936 4.946l-.012.011c-.043.386-.075.889-.075 1.466-.012.6.011 1.285.053 2.035.194 3.748.857 8.554 1.5 9.583.62.995 1.499 1.734 1.97 2.076l25.514-5.042.31-2.292"/><path fill="#5F0041" fill-rule="evenodd" d="M42.383 215.581s29.507 1.992 48.405 17.624c18.897 15.621 41.649 31.318 57.024 30.91 12.591-.331 34.476-12.623 46.07-22.27 11.608-9.635 24.54-19.614 34.82-22.27 10.278-2.665 19.218-1.66 19.218-1.66.011 0 2.999 4.316 2.002 10.633-.995 6.317-3.319 11.97-5.31 13.961-1.992 2.003-10.61.996-17.901 5.321-7.292 4.326-21.875 14.958-30.172 22.603-8.288 7.644-23.684 17.59-49.659 17.773-28.244.182-53.287-19.422-61.402-26.082-10.933-8.972-23.866-15.953-30.162-18.276-6.306-2.334-8.95-1.671-10.942-4.658-1.991-2.998-4.646-14.968-3.319-19.283" clip-rule="evenodd"/><path fill="#FFF" d="M90.123 234.01c-16.81-13.906-42.143-16.861-46.993-17.31l-1.082 3.512c-.888 2.912.204 9.721 1.596 14.41.278.92.557 1.746.835 2.431.257.653.514 1.178.75 1.53l.019.033c1.06 1.596 2.495 1.96 4.914 2.58 1.456.376 3.244.825 5.504 1.66 4.593 1.691 12.655 5.825 20.92 11.392a120.75 120.75 0 0 1 4.808 3.384 129.484 129.484 0 0 1 4.743 3.671v.012c4.037 3.308 12.27 9.829 22.977 15.492 10.685 5.643 23.833 10.44 37.752 10.343 12.837-.085 23.041-2.58 31.071-5.995 7.998-3.405 13.822-7.73 17.89-11.489 6.008-5.535 15.28-12.624 22.742-17.785a179.83 179.83 0 0 1 4.112-2.762 103.004 103.004 0 0 1 3.5-2.194c4.401-2.602 9.176-3.34 12.838-3.909 2.345-.353 4.187-.642 4.817-1.21l.035-.031v-.01l.012.01v-.01c1.306-1.307 2.805-4.466 3.918-8.406.215-.76.417-1.573.6-2.42.193-.877.353-1.724.482-2.537v-.01c.76-4.809-.92-8.33-1.563-9.487-2.013-.16-9.69-.568-18.362 1.681-5 1.295-10.696 4.4-16.585 8.373-5.932 4.015-12.034 8.897-17.816 13.693-8.416 6.992-22.195 15.376-34.005 19.658-2.323.846-4.561 1.53-6.68 2.013-2.131.493-4.144.793-5.997.846h-.042c-7.902.204-17.613-3.672-27.742-9.593-10.021-5.857-20.482-13.715-29.968-21.564m-47.666-19.475c.086.01 29.829 2.024 48.994 17.859 9.411 7.783 19.775 15.578 29.69 21.37 9.818 5.74 19.175 9.508 26.638 9.316l.043-.011c1.691-.043 3.576-.322 5.589-.782 2.034-.471 4.197-1.135 6.434-1.948 11.585-4.198 25.107-12.431 33.384-19.305 5.814-4.84 11.981-9.754 17.977-13.812 6.06-4.09 11.96-7.302 17.238-8.662 10.46-2.708 19.572-1.69 19.593-1.69.32.031.599.212.771.47.203.31 3.17 4.87 2.14 11.37a45.255 45.255 0 0 1-1.133 5.214c-1.21 4.262-2.913 7.774-4.454 9.326h-.012l-.075.065c-1.092 1.028-3.223 1.36-5.942 1.777-3.48.535-8.041 1.241-12.088 3.64a83.764 83.764 0 0 0-3.415 2.141 144.338 144.338 0 0 0-4.07 2.73c-7.387 5.107-16.574 12.132-22.505 17.603-4.219 3.886-10.235 8.361-18.501 11.873-8.245 3.512-18.716 6.072-31.874 6.168-14.326.096-27.805-4.818-38.737-10.59-10.9-5.76-19.24-12.376-23.32-15.717l-.01-.01a107.281 107.281 0 0 0-4.648-3.609 114.214 114.214 0 0 0-4.743-3.34c-8.116-5.46-15.996-9.508-20.471-11.157-2.142-.792-3.887-1.231-5.3-1.595-2.923-.75-4.636-1.178-6.146-3.47l-.011-.01c-.321-.481-.642-1.135-.953-1.916-.31-.761-.61-1.65-.9-2.613-1.477-4.98-2.6-12.313-1.584-15.62l1.328-4.327c.15-.47.6-.77 1.07-.738"/><g fill="#FFF"><path d="m59.85 231.524 1.627.654c.653.257 1.135.236 1.392-.417.203-.514-.15-.857-.782-1.114l-1.638-.642-.599 1.519zm-1.489 3.759 1.82.718c.643.256 1.274.3 1.585-.472.235-.6.012-1.06-.717-1.349l-1.95-.77-.738 1.873zm-.053-8.919 5.503 2.195c2.645 1.05 2.613 2.762 2.205 3.801-.396 1.017-1.113 1.37-2.012 1.477.77.675 1.327 1.735.75 3.213-.804 2.023-2.967 2.376-4.743 1.67l-5.697-2.27m20.29 4.173c-1.274 2.73-3.351 3.352-6.35 1.948-2.987-1.391-3.865-3.393-2.59-6.112l2.815-6.04 3.02 1.414-2.495 5.353c-.471 1.007-1.06 2.26.407 2.945 1.434.664 2.023-.589 2.484-1.595l2.505-5.353 3.02 1.402m2.016 6.532 1.51.869c.535.31 1.328.642 1.81-.193.342-.6.213-1.125-.89-1.767l-1.348-.771-1.082 1.862zm-.513-5.77 5.492 3.17c1.638.952 2.527 2.676 1.51 4.454-.568.974-1.606 1.745-2.763 1.541.61.76.59 1.906.023 3.137-.224.482-.856 1.606-.846 2.194l-2.88-1.658c.129-.557.354-1.082.6-1.585.439-.942.889-1.927-.246-2.58l-1.531-.889-1.896 3.276-2.88-1.66m15.877-3.236 2.644 2.153-1.22 6.499.031.02 3.662-4.506 2.441 1.98-6.841 8.426-2.516-2.045 1.166-6.691-.03-.022-3.737 4.604-2.441-1.991m15.242-1.503 2.634 2.034-4.936 6.393 3.79 2.923-1.702 2.205-6.425-4.979m13.391-3.34 7.41 5.01-1.553 2.303-4.657-3.147-.75 1.123 4.219 2.86-1.446 2.141-4.23-2.859-.748 1.124 4.785 3.233-1.552 2.313-7.548-5.117"/><path d="M111.318 266.214v-7.838l3.212 1.789-.354 4.368 3.577-2.59 3.19 1.776-6.713 4.111-1.938 3.491-2.912-1.616m14.638-4.709 7.88 2.805-.942 2.623-4.732-1.69-.45 1.273 4.068 1.456-.877 2.431-4.07-1.445-1.38 3.886-3.147-1.114m14.819 1.863c.835.17 2.227-.129 2.687-2.506.471-2.377-.707-3.18-1.531-3.34-.835-.161-2.227.139-2.688 2.505-.47 2.377.696 3.17 1.532 3.34m1.68-8.5c3.223.642 4.915 3.393 4.283 6.637-.642 3.255-3.255 5.15-6.488 4.519-3.223-.632-4.925-3.394-4.283-6.638.643-3.255 3.255-5.161 6.488-4.519m10.273 9.781c.845.021 2.163-.525 2.205-2.934.043-2.42-1.241-3.008-2.098-3.02-.846-.02-2.153.515-2.206 2.935-.043 2.42 1.252 3.008 2.099 3.02m.16-8.663c3.298.064 5.45 2.474 5.386 5.793-.064 3.308-2.303 5.642-5.6 5.578-3.287-.064-5.439-2.474-5.375-5.793.064-3.308 2.303-5.641 5.589-5.578m8.375 2.595-2.987.493-.46-2.741 9.271-1.531.461 2.74-2.998.493 1.338 7.955-3.297.546m10.749-5.194 1.842-.663c.653-.225 1.156-.621.878-1.403-.215-.599-.696-.803-1.435-.535l-1.97.696.685 1.905zm-1.36-3.8 1.65-.589c.664-.247 1.006-.579.77-1.231-.192-.515-.685-.547-1.317-.322l-1.659.6.556 1.542zm-4.56-2.848 5.567-2.003c2.677-.963 3.8.354 4.165 1.393.375 1.028.075 1.766-.536 2.452 1.028-.011 2.142.417 2.687 1.916.729 2.044-.652 3.737-2.452 4.379l-5.77 2.066m13.373-9.854-2.42-2.505-.02.01.632 3.448 1.81-.953h-.002zm-5.568-4.946 2.88-1.52 8.534 7.762-3.052 1.606-1.124-1.157-3.04 1.606.3 1.596-2.967 1.563m4.412-14.7 2.784-1.842 4.455 6.735 3.993-2.655 1.53 2.323-6.766 4.486m1.099-13.791 2.666-2 4.84 6.444 3.822-2.87 1.67 2.228-6.488 4.872m11.557-17.586c-.3-.268-1.274-1.017-2.356-.16-1.22.974-.675 2.472.236 3.607.91 1.146 2.248 2.024 3.469 1.05.877-.696.728-1.585.246-2.506l2.57-2.044c1.36 1.712 1.413 4.635-1.06 6.606-2.741 2.183-5.835 1.477-7.837-1.029-2.12-2.676-1.853-5.781.76-7.858 2.334-1.842 4.593-1.628 6.51.31m-1.841-3.735 2.646-2.023 4.892 6.413 3.812-2.901 1.68 2.216-6.455 4.925m12.989-13.902c1.542 2.581.888 4.658-1.949 6.35s-4.978 1.284-6.52-1.295l-3.405-5.718 2.858-1.702 3.031 5.075c.567.953 1.274 2.14 2.666 1.305 1.35-.802.642-1.99.074-2.943l-3.03-5.076 2.87-1.713m8.265 5.608 1.841-.663c.653-.236 1.157-.622.868-1.413-.215-.6-.686-.804-1.424-.536l-1.97.706.685 1.906zm-1.37-3.8 1.659-.6c.653-.236 1.006-.568.77-1.22-.192-.525-.684-.547-1.327-.322l-1.648.6.546 1.542zm-4.561-2.848 5.577-2.003c2.677-.974 3.791.343 4.165 1.382.376 1.038.075 1.766-.535 2.452 1.028-.012 2.142.417 2.687 1.916.728 2.045-.653 3.736-2.452 4.379l-5.781 2.077"/></g><path fill="#5F0041" fill-rule="evenodd" d="M80.821 132.742v57.303s4.71 21.488 8.501 25.3c3.812 3.812 19.765 22.249 25.846 24.99 6.082 2.74 31.703 13.94 31.703 13.94l33.651-15.771 17.934-16.457 10.022-14.935 2.74-10.975.311-21.638.6-43.588-131.34-.117" clip-rule="evenodd"/><path fill="#FFF" d="M81.18 133.976h130.269V94.79H81.179l.001 39.186z"/><path fill="#FFF" fill-rule="evenodd" d="M82.124 195.23h5.963v-8.296h6.457v-7.805h9.1v-9.123h8.94v-8.137h9.101v-8.458h10.59v-8.972h9.935l4.668-7.227 5.514 7.227h9.24l.107 9.464h8.94v7.302h8.437v8.47h7.785v9.454h8.607v8.137h9.101v9.796h5.3s-.503 4.647-1.66 7.463c-1.156 2.826-3.308 4.315-3.308 4.315h-7.944v-10.29h-11.093v-9.293h-8.769v-8.63h-8.94v-8.8h-8.608v-8.962h-8.105v-8.79h-10.096v8.458h-9.112v9.133h-9.432v8.79h-8.94v9.133h-9.594v9.133h-8.447v8.962h-7.945s-3.308-4.154-4.304-6.97c-.996-2.827-1.488-5.483-1.488-5.483" clip-rule="evenodd"/><path fill="#FFF" fill-rule="evenodd" d="M158.083 178.43c-1.017 2.816 2.655 4.154 1.124 6.713-.567 1.028-1.07 2.206-1.124 3.33-.717.975-.568 2.355-.46 3.694l.096.61c-.557.364-1.37-.717-1.681.418.31.664.203 1.53.557 2.195l-1.274.267c0 .921.46 1.585-.096 2.398-1.746 0-1.64-1.841-2.763-2.665-.664.064-.92.985-1.489 1.188-.31.407-.866.717-1.423.77-.161-.876.3-1.958-.771-2.312-.878.354-1.585 1.082-2.56 1.178-.095.258-.352.204-.556.204-.204-.92.814-1.639.557-2.613-.31-.256-.504-.567-.92-.46-.408.204-.911.417-1.275.364-.203.514-.664.203-1.028.3-.096-1.489 1.231-2.399 2.099-3.534 1.434-.61 2.805-1.231 4.497-1.38 1.027-.365 2.151-.932 2.302-2.11a.94.94 0 0 0-.257-.814c-.557.15-.76.718-.922 1.178-.61.61-1.423 1.232-2.194.814-.353-.15-.77-.354-1.124-.503v-.107c.61-.108 1.488-.15 1.841-.921.46-.92-.107-1.596-.16-2.517 0-.353-.043-.663-.407-.92-1.424-.054-2.452.974-3.833.204-.354-.557-.097-1.125-.204-1.842.867-.407 1.638-1.125 2.666-1.125.964.258 1.628 1.638 2.71 1.125.705-.407 1.273-.974 2.194-1.125-.054-.567-.77-.878-1.124-1.08-.868.202-1.531.673-2.409.364 0-.568.62-.719.921-1.029 1.177.15 2.045.46 3.222.204.717-.161 1.435-.257 2.249-.408.364-.257.92-.16 1.284-.47.61 0 1.222.053 1.735.417" clip-rule="evenodd"/><path fill="#FFF" fill-rule="evenodd" d="M133.253 179.382a2.703 2.703 0 0 0-1.186.58c-.514 1.178 1.167.772 1.53 1.694l-.253.253c-.922-.406-1.692-.051-2.613.11-1.477 1.23 1.38 1.23 1.337 2.557-.975-.053-2.152-1.016-3.17-.46 0 2.26 2.96 3.03 4.137 4.615.054 1.338.105 2.72-.72 3.695-.246.353-.662.813-1.015 1.016v.266c.406.353 1.017.513 1.584.556 1.178.92-.57 1.746-.774 2.667.77.46 2.1.208 2.304 1.342-.257 1.018-1.488.715-1.53 1.839 1.884.717 3.98 1.69 6.132.919.257.15.912-.053.665.514-1.638 1.286-3.481 2.67-4.959 3.997-.717.514-1.377 1.485-2.298 1.645-1.488.964-3.373-.105-4.807-.822-.407-.204-1.075.11-1.482-.254-.257.364-.878-.001-1.07.46-1.028-.055-1.436 1.028-2.153 1.542 0 .46-.306.971-.049 1.282 1.178.46 1.175-.93 1.839-1.391.256-.096.666-.148.816.205-.096 1.082-1.386 1.85-1.022 2.867.664.053 1.385-.459 1.845-.92.3-.203.816-.097.72.363-.568.61-.572 1.177-.83 1.948 1.179.513 1.997-.108 3.121-.569.878-.053 1.282.719 1.796 1.125 1.168.621.813-1.124 1.53-1.584 1.274-.311 1.38 1.746 2.6 1.638.664-.203.263-1.015.37-1.53 0-1.134.81-.105 1.378-.308 1.83 1.531 1.424-1.642 2.655-1.899.76.053 1.587-.618 2.304-.768.921-.77.863-2.206 1.27-3.126.31-.054.462.31.665.46a8.626 8.626 0 0 1-1.016 3.331c-.567.054-.877.622-1.487.569-.15.149-.557.35-.557.713.46 1.307 1.294 2.238 2.268 3.072.734.639 1.54 1.23 2.316 1.887-.068-.375-.208-.932.224-1.167.45.31.964.769 1.167 1.282.214.61.714 1.073.768 1.748 1.38 2.409-1.016 4.508-.92 6.81 0 3.082 3.426 4.354 5.214 5.992 2.911 2.206 1.895 6.266 1.584 9.543l-1.736 1.542c-2.205.61-3.426-1.392-5.835-.932-.814.569-1.89.715-2.19 1.796l.351.46c.974.107 1.789-.202 2.71-.46.417.514 1.285.112 1.542.829-1.275.096-2.767-.003-3.484 1.379-.3.513.055.921.569 1.082.867.557 1.533-.517 2.304-.828.406.096 1.02-.2 1.276.314-.568.717-1.897.975-1.693 2.195l2.044.158c.46-.418 1.328-.202 1.638-.823.718-.054.921-.867 1.585-1.07.568.054 1.178-.202 1.735.15.568.108 1.232-.001 1.028-.719-.353-.567-.098-1.38-.205-2.044.503-1.434 1.426.098 2.4-.362-.15-1.382-.759-2.412-.556-3.901.61-.771 1.175.055 1.935-.363-.406-1.274-1.067-2.557-.81-4.046.814-1.123 1.268.568 2.19 0 .353-1.07-.254-2.197-.158-3.428-.193-.471-.706-.617-1.113-.617-.663-.3-1.694-.355-1.844-1.276-.107-1.339.096-2.624.556-3.695.364-1.84 2.872-.666 3.846-1.79 1.531-.782 2.346-2.212 2.752-3.743.835-2.045.244-4.082-.58-5.903h-5.588l.64.164c1.178.557 2.818-.42 3.792.919.76 1.435 1.272 3.736.309 5.17-.514.771-1.322 1.235-2.147 1.385-.514.514-1.737.106-2.4.363-1.436-.92-1.695-2.923-2.819-4.155-1.027-1.199-2.183-2.454-2.933-3.846-.588-1.102-.932-2.302-.75-3.64-.567-1.231.214-2.464 0-3.695.107-1.22.975-2.409.514-3.683-.514-.053-.768-.616-1.378-.562-.365.567-.313 1.483-.72 2.146-1.435-.15-2.096-1.837-2.963-2.66-.921-.611-1.532 1.025-2.195 1.378-.161.107-.613.214-.72-.096-.407-.771-.768-1.593-.768-2.407 0-.418-.451-.515-.708-.665-.664.407-1.436.46-2.207.556-.92-.15-.203-1.07-.556-1.53l-.212.151a8.613 8.613 0 0 0-2.346 0l-.557-.356c-.364-.471.152-1.04.248-1.597.204-1.381 1.896-2.503 1.125-3.949-1.22-2.248-2.403-5.17-1.022-7.728-.107-.825.61-1.907.097-2.667.364-.728-.3-1.489-.556-2.056-1.036-.803-2.417-1.414-3.665-1.149zm12.191 36.096c.008.035.012.084.02.115v-.103c-.008-.006-.012-.006-.02-.012z" clip-rule="evenodd"/><path fill="#FFF" fill-rule="evenodd" d="M158.153 213.592c-.825-.246-1.585-.663-2.12-1.488.514-.042.877.054 1.38.257.472-.353 1.029.407 1.585 0 .257-.096.568-.096.718-.353-1.274-1.488-3.93-2.002-4.186-4.369.92.932 2.248 1.285 3.575 1.135.31-.353-.16-.62-.203-.92-.814-.568-1.381-1.596-1.938-2.313-.268-.557-.471-1.274-.471-1.842.515.418 1.178 1.029 1.841.825.568-1.135.161-2.313.664-3.437-.503-1.585 1.028-2.763.921-4.411 1.082-1.542 1.329-3.384 2.559-4.818 1.435-1.585 3.116-2.923 5.16-2.773.311.214.622-.3.921-.043 1.746.717 1.896 2.462 2.196 3.94.31.931.214 1.799.106 2.773-.353 2.977-1.734 5.482-2.655 8.201-.364.772-.514 1.542-.814 2.302-.77-.257-.46-1.477-.663-2.409-.31-.46-.975-.257-1.392-.15-.193-2.098 1.284-3.533 2.302-5.171.107-.16-.097-.514-.354-.567-.867.053-1.274.203-1.948.771l-.247-.204c.718-1.949 2.86-2.516 3.833-4.154.097-.664.568-1.542.097-2.206-.15-1.028-1.274-1.285-1.991-1.691-3.116.556-5.161 3.586-6.082 6.402-.256 1.542-1.07 2.827-1.028 4.518-.353 1.95.203 4.305.568 6.147.867 1.637 1.53 3.33 2.655 4.817.203.397.407.803.6 1.231m-22.119-20.35c-.053.718-.717 1.285-.46 1.949.664 1.124 1.477-.204 2.398.107.214-.257.771-.31.92-.107-.352.664-.867 1.328-.867 2.056 1.436.76 2.763.15 4.24-.31.312.556-.663 1.487.46 1.84 1.33-.203 2.56-.567 3.577-1.434.974-.31 1.489 1.178 2.313 1.435 0 .257.396.567 0 .77-.514-.096-1.434-.256-1.542.568.161.3.054.771.108 1.178-.826-.204-1.436-1.135-2.41-1.135-.867.567-.353 2.098-1.37 2.152-1.028-.664-.567-2.302-1.95-2.399-.77.407-1.38 1.328-2.194 1.585-.567-.92 0-2.26-.824-3.073-.814 0-1.382.814-2.248.354-.258-.771.663-1.745-.46-2.099-.922.31-1.736.814-2.764.92l-.15-.46c.664-1.584 1.275-2.965 2.87-3.95m.915 23.786c.77.365 1.788.258 2.751.258.921.974-.45 3.18 1.746 2.976-.718 1.53-1.018 3.33-1.382 4.861-1.83.257-3.983-1.735-5.364.31-.16.675.204.975.31 1.542.707.975.868 2.302 1.071 3.534.054.214 0 .62-.364.46-.76-.3-1.424-1.017-2.29-.664-.622 1.178.813 2.41.203 3.694-.257.557-.771.096-1.028-.108-.15-.352-.664-.256-1.017-.46-.975.46-.364 1.542-.621 2.26-.707.406-1.382-.664-1.938 0-.975 1.53-2.816 2.002-4.497 1.744-.257-.77.514-1.702 1.167-2.205l.107-.31c-.15-.204-.353-.31-.664-.257-.92.364-1.584 1.284-2.559 1.027-.3-.77.46-1.327.825-1.852.3-.256.92-.203.92-.77-.974-.61-1.745.363-2.559.567-.257-1.178 1.275-1.328 1.992-1.842.567 0 1.285 0 1.745.354 1.734.47 3.523-.664 4.54-2.1 1.178-3.221.417-5.995.62-9.528.718-1.178 1.071-2.827 2.496-3.491M99.415 139.8l-6.617 11.017 6.723 12.474 6.5-12.592m89.611-11.574-6.617 11.018 6.724 12.473 6.499-12.592" clip-rule="evenodd"/><path fill="#5F0041" d="M101.875 102.464a.7.7 0 0 1 .256-.952.701.701 0 0 1 .954.268l13.458 23.651a.68.68 0 0 1-.243.929l-.024.013a.69.69 0 0 1-.942-.255l-.001-.002"/><path fill="#5F0041" d="M102.315 126.617a.697.697 0 0 1-.951.259l-.002-.001a.695.695 0 0 1-.26-.948l.003-.005 13.458-23.64a.702.702 0 0 1 .953-.269.7.7 0 0 1 .257.953"/><path fill="#5F0041" fill-rule="evenodd" d="M104.037 115.187c0-7.259 2.077-13.137 4.636-13.137 2.57 0 4.648 5.878 4.648 13.137 0 7.26-2.078 13.138-4.648 13.138-2.559 0-4.636-5.878-4.636-13.138" clip-rule="evenodd"/><path fill="#FFF" fill-rule="evenodd" d="M104.105 116.805s3.062.579 4.56.546c1.51-.042 4.562-.75 4.562-.75s.107.548.043 1.179c-.075.642-.204 1.65-.204 1.65s-3.758.705-4.497.705c-.738 0-4.26-.407-4.26-.407m.235 1.654s2.687.676 4.154.6c1.478-.064 4.068-.6 4.068-.6s-.406 2.185-.642 2.624c-.235.439-2.816.567-3.394.535-.567-.031-3.351-.235-3.448-.407-.106-.16-.706-2.452-.738-2.752m1.341 4.205s2.452.632 3.116.504c.675-.129 2.42-.268 2.548-.504l-1.006 1.65c-.225.235-1.81.128-2.206.128-.407 0-1.413-.065-1.68-.332-.268-.267-.878-1.273-.878-1.413m.283-18.983s.61-2.045 1.435-2.537c.824-.504 1.542-.889 2.366-.054.825.825.931 1.21 1.103 1.874.16.664.225 1.05.225 1.05h-5.183" clip-rule="evenodd"/><path fill="#5F0041" fill-rule="evenodd" d="M124.747 117.856c-.6 2.141-8.276 1.853-17.163-.642-8.875-2.505-15.578-6.263-14.978-8.405.588-2.142 8.276-1.852 17.152.653 8.876 2.495 15.59 6.253 14.989 8.394" clip-rule="evenodd"/><path fill="#5F0041" fill-rule="evenodd" d="M125.6 108.804c-.3-2.13-8.03-1.638-17.281 1.103-9.25 2.73-16.51 6.682-16.21 8.801.29 2.13 8.03 1.638 17.28-1.103 9.252-2.73 16.51-6.67 16.211-8.801" clip-rule="evenodd"/><path fill="#5F0041" d="M104.384 115.159v.012c0 4.989.985 9.304 2.431 11.444.267.397.546.718.835.942.332.257.685.397 1.028.397 1.113 0 2.163-1.38 2.955-3.619.825-2.333 1.338-5.578 1.338-9.164v-.012c0-3.586-.513-6.82-1.338-9.164-.792-2.238-1.842-3.62-2.955-3.62-1.124 0-2.163 1.382-2.955 3.608-.825 2.357-1.339 5.59-1.339 9.176m-.695.012v-.012c0-3.672.524-6.99 1.38-9.4.89-2.517 2.164-4.08 3.609-4.08s2.72 1.563 3.608 4.08c.857 2.41 1.381 5.728 1.381 9.4v.012c0 3.66-.524 6.99-1.38 9.4-.89 2.515-2.164 4.079-3.61 4.079-.513 0-.995-.193-1.444-.536a4.795 4.795 0 0 1-.996-1.102c-1.52-2.249-2.548-6.724-2.548-11.841"/><path fill="#5F0041" fill-rule="evenodd" d="m147.867 104.182-.16.332c-.385 2.323.332 4.54-.225 6.595-.214.494-.995.547-1.488.386-.718-1.275.225-2.495-.503-3.823.342-1.938-.718-4.486.888-6.263 1.66 0 1.156 1.831 1.488 2.773m-3.366-1.279c.557 2.387.225 5.492.332 8.254 0 .333-.396.61-.61.718l-.824.225c-1.275-2.099-.45-4.711-.664-7.195.17-.953.385-1.67 1.102-2.28.28-.054.493.064.664.278m5.691.113c.439 2.377-.107 4.658.107 7.473-.386.343-.107.996-.61 1.168-.493.171-.877-.172-.985-.557-.118-2.377-.279-4.818 0-7.42.267-.492.717-1.274 1.488-.664" clip-rule="evenodd"/><path fill="#5F0041" fill-rule="evenodd" d="M142.015 106.172c0 2.11.054 4.048-.278 6.093-.214.557-.942.171-1.21.835.107.493.6.77.996.996 1.05.171 1.766-.386 2.698-.332.835-.332 1.884.225 2.602-.385 1.21.16 2.816-.45 3.64.492-.332 1.273-2.088.888-3.094 1.498-.718.279-1.542.279-2.152.89-.054 1.713-.493 3.436.385 4.871.279-.16.717-.61.279-.995l.224-2.656c.718-1.06 1.981-1.113 3.084-1.606.674-.279 1.992-.172 2.495-.889.106-1.83-.771-3.597.663-4.989.943.054.504 1.938 1.927 1.67.226.546 0 1.328-.214 1.928 0 1.895 0 4.1.108 5.984-.61 1.778-1.874 3.94-4.09 4.047-.386.225-.61.44-.771.835.16.547.995.215.995.997.161.942.161 1.991-.439 2.879a10.891 10.891 0 0 0-3.04.61c-.835-.502-1.938-.278-2.816-.61-.503 0-.89.386-1.381.108.053-1.05-.054-2.548-.279-3.705a7.695 7.695 0 0 0-1.82-1.499c-1.167-4.935-.77-10.032-.171-14.743-.054-1.21.107-2.655.77-3.597 1.05-.332.45.942.89 1.273" clip-rule="evenodd"/><path fill="#5F0041" d="M178.002 102.464a.7.7 0 0 1 .257-.952.701.701 0 0 1 .952.268l13.46 23.651a.685.685 0 0 1-.248.936l-.01.006a.7.7 0 0 1-.952-.257"/><path fill="#5F0041" d="M178.442 126.617a.697.697 0 0 1-.951.259l-.002-.001c-.332-.183-.44-.61-.257-.953l13.46-23.64a.703.703 0 0 1 .951-.269.7.7 0 0 1 .257.953"/><path fill="#5F0041" fill-rule="evenodd" d="M180.164 115.187c0-7.259 2.077-13.137 4.636-13.137 2.57 0 4.646 5.878 4.646 13.137 0 7.26-2.077 13.138-4.646 13.138-2.56 0-4.636-5.878-4.636-13.138" clip-rule="evenodd"/><path fill="#FFF" fill-rule="evenodd" d="M180.236 116.805s3.05.579 4.56.546c1.51-.042 4.561-.75 4.561-.75s.108.548.031 1.179c-.063.642-.192 1.65-.192 1.65s-3.758.705-4.497.705c-.74 0-4.261-.407-4.261-.407m8.452 1.654s-.406 2.185-.63 2.624c-.237.439-2.828.567-3.395.535-.567-.031-3.351-.235-3.448-.407-.106-.16-.717-2.452-.75-2.752 0 0 2.688.676 4.166.6m-2.819 3.605s2.44.632 3.115.504c.675-.129 2.42-.268 2.56-.504l-1.008 1.65c-.245.235-1.819.128-2.226.128-.397 0-1.403-.065-1.67-.332-.268-.267-.878-1.273-.878-1.413m.286-18.983s.6-2.045 1.424-2.537c.835-.504 1.553-.889 2.378-.054.823.825.931 1.21 1.102 1.874.161.664.215 1.05.215 1.05h-5.172" clip-rule="evenodd"/><path fill="#5F0041" fill-rule="evenodd" d="M200.875 117.856c-.6 2.141-8.277 1.853-17.152-.642-8.887-2.505-15.59-6.263-15-8.405.599-2.142 8.286-1.852 17.162.653 8.876 2.495 15.59 6.253 14.99 8.394" clip-rule="evenodd"/><path fill="#5F0041" fill-rule="evenodd" d="M201.728 108.804c-.3-2.13-8.03-1.638-17.28 1.103-9.252 2.73-16.51 6.682-16.222 8.801.3 2.13 8.042 1.638 17.292-1.103 9.25-2.73 16.51-6.67 16.21-8.801" clip-rule="evenodd"/><path fill="#5F0041" d="M180.508 115.159v.012c0 4.989.995 9.304 2.44 11.444.258.397.547.718.835.942.332.257.675.397 1.018.397 1.124 0 2.162-1.38 2.955-3.619.824-2.333 1.338-5.578 1.338-9.164v-.012c0-3.586-.514-6.82-1.338-9.164-.793-2.238-1.83-3.62-2.955-3.62-1.114 0-2.164 1.382-2.955 3.608-.825 2.357-1.338 5.59-1.338 9.176m-.696.012v-.012c0-3.672.535-6.99 1.38-9.4.889-2.517 2.163-4.08 3.609-4.08 1.456 0 2.719 1.563 3.619 4.08.846 2.41 1.37 5.728 1.37 9.4v.012c0 3.66-.524 6.99-1.37 9.4-.9 2.515-2.163 4.079-3.62 4.079-.514 0-.995-.193-1.445-.536a5.018 5.018 0 0 1-.985-1.102c-1.52-2.249-2.558-6.724-2.558-11.841"/><path fill="#FFF" fill-rule="evenodd" d="M79.57 94.743c-.023 3.459-.62 84.862.012 94.797 1.263 20.14 13.158 37.742 34.411 50.879 15.878 9.818 31.146 13.673 31.778 13.833l.514.118.503-.118c.653-.16 16.028-3.972 31.971-13.758 21.348-13.126 33.18-30.75 34.24-50.974.813-15.59 1.102-93.706 1.102-94.499l.012-2.14-134.52-.258-.02 2.12h-.003zm36.574 141.983c-20.257-12.548-31.124-28.512-32.313-47.453-.203-3.255-.278-14.765-.278-28.683 0-24.08-.012-55.247.043-63.577l125.676.023.03 92.485c-.995 18.994-12.355 34.744-32.676 47.27-13.866 8.544-27.645 12.463-30.333 13.18-2.676-.728-16.349-4.69-30.15-13.244" clip-rule="evenodd"/></svg>